<?xml version="1.0" encoding="utf-8"?>
<!-- Svg Vector Icons : http://www.onlinewebfonts.com/icon -->
<!DOCTYPE svg PUBLIC "-//W3C//DTD SVG 1.1//EN" "http://www.w3.org/Graphics/SVG/1.1/DTD/svg11.dtd">
<svg version="1.1" xmlns="http://www.w3.org/2000/svg" xmlns:xlink="http://www.w3.org/1999/xlink" x="0px" y="0px" viewBox="0 0 1000 1000" enable-background="new 0 0 1000 1000" xml:space="preserve">
<metadata> Svg Vector Icons : http://www.onlinewebfonts.com/icon </metadata>
<g><g transform="translate(0.000000,511.000000) scale(0.100000,-0.100000)"><path d="M3048,4989.1c-110.4-61.3-112.4-61.3-112.4-713.4v-605l53.1-53.1c71.5-71.5,167.6-87.9,253.5-45c112.4,59.3,122.6,112.4,122.6,705.2c0,588.7-10.2,645.9-120.6,703.1C3172.6,5019.8,3105.2,5021.8,3048,4989.1z"/><path d="M4294.8,4995.3c-22.5-10.2-59.3-38.8-81.8-63.4c-38.8-42.9-40.9-77.7-47-621.4c-4.1-357.7,2-598.9,14.3-631.6c55.2-141,249.4-171.7,355.7-55.2l55.2,61.3v592.8v592.8l-55.2,61.3C4474.7,4999.3,4368.4,5025.9,4294.8,4995.3z"/><path d="M5519.2,4980.9c-34.7-16.3-73.6-53.1-87.9-81.8c-14.3-34.7-22.5-243.2-22.5-631.6v-578.5l53.1-63.4c65.4-77.7,163.5-100.2,251.4-55.2c118.6,63.4,124.7,96.1,124.7,707.2c0,609.1-6.1,645.9-122.6,705.2C5641.8,5021.8,5598.9,5021.8,5519.2,4980.9z"/><path d="M6753.8,4980.9c-112.4-59.3-118.6-100.2-118.6-692.9c0-605,8.2-656.1,122.6-715.4c85.8-42.9,181.9-26.6,253.5,45l53.1,53.1v601c0,662.3-2,676.6-126.7,719.5C6856,5019.8,6821.2,5017.7,6753.8,4980.9z"/><path d="M2647.3,3024.8c-179.9-61.3-349.5-192.1-449.7-347.5c-151.3-233-143.1-75.6-136.9-2612.3l6.1-2279.1l77.7-155.4c126.7-259.6,355.7-433.3,635.7-484.4c165.6-30.7,4280.2-30.7,4466.2,0c286.2,45,521.2,220.8,650,484.4l77.7,155.4l6.1,2268.9c4.1,2213.7,4.1,2275-34.8,2403.8c-81.8,265.7-304.6,490.6-570.3,572.3c-126.7,38.8-194.2,40.9-2362.9,40.9l-2230-2L2647.3,3024.8z M7281.1,2444.3c139-100.2,130.8,42.9,130.8-2340.4c0-2401.7,10.2-2240.2-141.1-2340.4l-69.5-47H5022.5c-2138,0-2181,0-2246.4,40.9c-36.8,22.5-83.8,69.5-106.3,106.3c-40.9,65.4-40.9,108.3-40.9,2230c0,1796.7,4.1,2172.8,28.6,2230c28.6,69.5,112.4,143.1,186,161.5c22.5,6.1,1015.9,8.2,2207.5,6.1l2166.7-2L7281.1,2444.3z"/><path d="M3563.1,1755.5c-104.3-38.8-149.2-81.8-188.1-184c-28.6-73.6-30.7-255.5-26.6-1508.5c6.1-1402.2,6.1-1424.7,49-1479.9c22.5-30.7,67.4-75.6,98.1-98.1c55.2-42.9,73.6-42.9,1524.8-42.9c1451.3,0,1469.7,0,1526.9,42.9c30.7,22.5,77.7,81.8,104.2,132.9l45,89.9l-4.1,1420.6c-6.1,1420.6-6.1,1420.6-51.1,1492.1c-24.5,38.8-75.6,89.9-112.4,112.4c-65.4,38.8-108.3,40.9-1477.8,45C3898.3,1782.1,3626.4,1778,3563.1,1755.5z"/><path d="M170,2123.4c-112.4-104.2-81.8-292.3,57.2-351.6c102.2-42.9,1103.8-40.9,1208,2c134.9,55.2,163.5,237.1,55.2,345.4l-53.1,53.1H830.2H223.1L170,2123.4z"/><path d="M8509.6,2123.4c-69.5-65.4-89.9-171.7-45-257.5c59.3-112.4,112.4-122.6,705.2-122.6s645.9,10.2,705.2,122.6c42.9,85.9,26.6,181.9-45,253.5l-53.1,53.1h-607.1h-607.1L8509.6,2123.4z"/><path d="M223.1,925.6c-26.6-10.2-65.4-49.1-87.9-85.9C78,747.8,92.3,647.6,176.1,574l61.3-57.2h590.7h590.7l61.3,51.1c34.8,28.6,67.5,79.7,75.6,112.4c16.3,77.7-42.9,204.4-112.4,239.2C1382.1,950.1,296.7,954.2,223.1,925.6z"/><path d="M8562.7,925.6c-26.6-10.2-65.4-49.1-87.9-85.9c-57.2-92-42.9-192.1,40.9-265.7l61.3-57.2h590.7h590.7l63.4,53.1c77.7,65.4,100.1,163.5,55.2,251.4c-63.4,118.6-94,124.7-711.3,122.6C8859.1,944,8587.3,935.8,8562.7,925.6z"/><path d="M178.1-353.9C100.5-419.4,78-517.5,123-605.4c63.4-118.6,96.1-124.7,707.2-124.7c621.4,0,654.1,6.1,707.2,137c40.9,94,20.4,175.8-57.2,241.2l-61.3,51.1H830.2H241.5L178.1-353.9z"/><path d="M8517.8-353.9c-116.5-98.1-96.1-275.9,38.8-345.4c87.9-45,1138.5-45,1226.4,0c134.9,69.5,155.3,247.3,38.8,345.4l-63.4,53.1h-588.7h-588.7L8517.8-353.9z"/><path d="M223.1-1557.9C88.2-1615.1,59.6-1795,170-1903.3l53.1-53.2h607.1h607.1l53.1,53.2c108.3,108.3,79.7,290.2-55.2,345.4C1333-1515,321.2-1515,223.1-1557.9z"/><path d="M8562.7-1557.9c-134.9-57.2-163.5-247.3-53.1-349.5l53.1-49.1h607.1h607.1l53.1,53.2c112.4,110.4,81.8,288.2-57.2,347.5C9672.6-1515,8658.8-1515,8562.7-1557.9z"/><path d="M3058.2-3348.4c-120.6-47-122.6-55.2-122.6-715.4v-605l53.1-53.1c71.5-71.5,167.6-87.9,253.5-45c112.4,59.3,122.6,112.4,122.6,705.2c0,588.7-10.2,645.9-120.6,703.2C3174.7-3321.9,3131.8-3319.8,3058.2-3348.4z"/><path d="M4268.3-3366.8c-36.8-22.5-75.6-65.4-85.9-94c-12.3-28.6-20.4-294.4-20.4-603c0-609.1,6.1-641.8,124.7-705.2c87.9-45,186-22.5,251.4,55.2l53.2,63.4v590.7v590.7l-55.2,61.3C4460.4-3323.9,4360.2-3309.6,4268.3-3366.8z"/><path d="M5539.6-3346.4c-24.5-8.2-63.4-42.9-87.9-73.6c-40.9-53.2-42.9-73.6-42.9-643.9v-586.6l53.1-63.4c98.1-116.5,275.9-96.1,345.4,38.8c45,87.9,45,1138.5,0,1226.4C5756.3-3350.5,5639.8-3305.5,5539.6-3346.4z"/><path d="M6745.6-3364.8c-102.2-61.3-110.4-118.5-110.4-701.1c0-588.7,10.2-641.8,122.6-701.1c85.8-42.9,181.9-26.6,253.5,45l53.1,53.1v601c0,662.2-2,676.6-126.7,719.5C6849.8-3317.8,6819.2-3319.8,6745.6-3364.8z"/></g></g>
</svg>